name new_emg_signals
nRows=53
nColumns=7
 
endheader
time	LGLTMED	LRF	LADDLONG	LST	LTA	LGM
1.0000000000001563	0.8558109501483671	0.945654933396644	0.9441131225929884	0.9909303562995944	0.9640011657228704	0.7713282260936505
1.0100000000001614	0.8581996276151167	0.9413753738362388	0.9395971407011492	0.988411497254623	0.9602654339966452	0.7711542285425641
1.0200000000001594	0.860459624550622	0.9369932840226124	0.9349769685038954	0.9856022533630784	0.9563971774578492	0.7708791829653127
1.030000000000161	0.8625914861480827	0.9325146575868388	0.930260995912012	0.9825087036239646	0.9524039183131672	0.770505167329309
1.0400000000001626	0.8645958909956144	0.927945356789836	0.925457555801266	0.9791372203202718	0.9482931476865192	0.7700342999206867
1.0500000000001641	0.8664736562232545	0.9232911147164992	0.9205749158176731	0.975494460818604	0.9440723191133484	0.7694687462325948
1.0600000000001657	0.8682257422362233	0.9185575376284144	0.9156212704118358	0.9715873587240909	0.9397488421033416	0.7688107256780116
1.0700000000001673	0.8698532570009058	0.9137501074587332	0.910604733109211	0.9674231144108896	0.9353300757714648	0.7680625180892622
1.0800000000001688	0.8713574598520658	0.9088741844331438	0.9055333290217528	0.9630091849486144	0.9308233225359742	0.7672264699680699
1.0900000000001704	0.8727397647934384	0.903935009800724	0.9004149876049156	0.9583532734450352	0.9262358218811604	0.7663050004519439
1.100000000000172	0.8740017432675685	0.8989377086569498	0.8952575356619515	0.9534633178261558	0.9215747441824778	0.7653006069631239
1.1100000000001735	0.8751451263748342	0.8938872928400267	0.8900686905959386	0.948347479077241	0.9168471845925515	0.764215870506822
1.1200000000001715	0.8761718065254931	0.8887886638812256	0.8848560539082487	0.943014128972065	0.9120601569884428	0.7630534605854349
1.1300000000001766	0.8770838385125201	0.8836466159907062	0.8796271049418691	0.9374718373212508	0.907220587982582	0.7618161396968971
1.1400000000001782	0.877883439997116	0.8784658390615289	0.8743891948689596	0.9317293587734552	0.902335311000808	0.7605067673867189
1.1500000000001798	0.8785729914009771	0.8732509216758937	0.8691495409233322	0.9257956192037182	0.8974110604321004	0.7591283038261871
1.1600000000001813	0.8791550352012407	0.8680063540986115	0.8639152208801437	0.9196797017234386	0.8924544658561194	0.7576838128933446
1.1700000000001864	0.8796322746255645	0.8627365312433054	0.8586931677851247	0.91339083234674	0.8874720463569064	0.7561764647379888
1.1800000000001845	0.8800075717473028	0.8574457555973286	0.8534901649350458	0.9069383653484708	0.8824702049334889	0.7546095378160494
1.190000000000186	0.8802839449849672	0.852138240091809	0.8483128411096011	0.9003317683502756	0.8774552230198687	0.7529864203806347
1.2000000000001876	0.8804645660158409	0.8468181109033839	0.8431676660534978	0.8935806071721736	0.8724332551270881	0.7513106114180618
1.2100000000001891	0.8805527561191572	0.8414894101752279	0.8380609462062859	0.8866945304879398	0.8674103236201358	0.7495857210177237
1.2200000000001907	0.8805519819678429	0.8361560986462035	0.8329988206772032	0.8796832543231339	0.862392313642251	0.7478154701667834
1.2300000000001923	0.880465850889439	0.8308220581783438	0.8279872574622641	0.8725565464347425	0.8573849681990493	0.7460036899628149
1.2400000000001974	0.8802981056156132	0.8254910941732919	0.823032049901802	0.8653242106115497	0.8523938834155694	0.7441543202413696
1.2500000000001954	0.8800526185392387	0.8201669378682801	0.8181388133776226	0.8579960709342171	0.8474245039800687	0.7422714076185069
1.2600000000002005	0.879733385496709	0.8148532485017426	0.8133129822500222	0.8505819560341719	0.8424821187891871	0.7403591029526372
1.270000000000202	0.8793445190933519	0.8095536153381362	0.8085598070355907	0.8430916833901675	0.83757185680928	0.7384216582328793
1.2800000000002	0.8788902415895886	0.8042715595404747	0.8038843518265538	0.8355350437003436	0.8326986831686785	0.7364634229046421
1.2900000000002017	0.8783748773667782	0.7990105358783138	0.7992914919521777	0.8279217853662821	0.8278673954955076	0.734488839645375
1.3000000000001997	0.8778028449926395	0.7937739342584061	0.7947859118820895	0.8202615991242467	0.8230826205156548	0.7325024396055136
1.3100000000002048	0.8771786489089803	0.7885650810663389	0.7903721033715082	0.8125641028578509	0.8183488109254986	0.7305088371311802
1.3200000000002063	0.8765068707670732	0.7833872403092123	0.7860543638490735	0.8048388266253591	0.8136702425530049	0.728512723986326
1.330000000000208	0.8757921604388195	0.7782436145525148	0.7818367950491439	0.7970951979342198	0.8090510118199521	0.7265188630927577
1.3400000000002095	0.8750392267334922	0.7731373456477088	0.7777233018915171	0.7893425272951595	0.8044950335158961	0.7245320818070979
1.350000000000211	0.8742528278512731	0.7680715152502816	0.77371759161112	0.78158999408711	0.8000060388932945	0.7225572647529444
1.3600000000002126	0.873437761606204	0.7630491451305285	0.7698231731388655	0.7738466327628747	0.7955875740913246	0.7205993462258699
1.3700000000002142	0.8725988554502482	0.7580731972805582	0.7660433567328672	0.7661213194238048	0.7912429988944618	0.718663302187616
1.3800000000002122	0.8717409563301026	0.7531465738214799	0.7623812538571235	0.7584227587900972	0.7869754858299909	0.7167541418662053
1.3900000000002173	0.8708689204072726	0.7482721167152577	0.7588397773030149	0.7507594715925968	0.7827880196062209	0.7148768989803659
1.4000000000002153	0.8699876026715397	0.7434526072870182	0.7554216415478072	0.7431397824109585	0.7786833968910253	0.7130366226095196
1.4100000000002204	0.869101846477916	0.7386907655658709	0.7521293633433852	0.7355718079823346	0.7746642264291405	0.7112383677331937
1.420000000000222	0.8682164730364231	0.733989249454532	0.7489652625274413	0.7280634460035127	0.770732929496061	0.7094871854650852
1.4300000000002235	0.8673362708840117	0.7293506537392572	0.745931463048708	0.7206223644479929	0.766891740686948	0.7077881130075157
1.440000000000225	0.8664659853660865	0.7247775089517781	0.7430298941971628	0.7132559914177966	0.7631427090386884	0.7061461633517891
1.4500000000002267	0.8656103081548367	0.7202722800944534	0.7402622920294991	0.7059715055478446	0.7594876994821403	0.7045663147505581
1.4600000000002282	0.8647738668312734	0.7158373652397726	0.7376302009799387	0.6987758269784575	0.755928394620019	0.7030534999887426
1.4700000000002298	0.8639612145581734	0.7114750940152467	0.735134975645524	0.6916756089092988	0.7524662968236682	0.701612595481666
1.4800000000002314	0.8631768198721173	0.707187725984996	0.7327777827345736	0.6846772297459572	0.7491027306409256	0.7002484102312772
1.490000000000233	0.8624250566222605	0.7029774489389427	0.7305596031663714	0.6777867858481564	0.7458388455054648	0.6989656746749694
1.500000000000238	0.8617101940834284	0.6988463771001933	0.7284812343107369	0.6710100848872133	0.7426756187369001	0.6977690294639843
1.510000000000236	0.8610363872699862	0.6947965492599537	0.7265432923567804	0.6643526398193127	0.7396138588189226	0.6966630142114547
1.5200000000002412	0.8604076674756859	0.6908299268484159	0.724746214802746	0.6578196634805924	0.7366542089414522	0.695652056252192
